<svg width="800" height="800" viewBox="0 0 800 800" fill="none" xmlns="http://www.w3.org/2000/svg">
<path d="M465.594 137.594C465.594 173.825 436.224 203.194 399.994 203.194C363.764 203.194 334.394 173.823 334.394 137.594C334.394 101.364 363.764 71.9938 399.994 71.9938C436.224 71.9938 465.594 101.364 465.594 137.594Z" fill="white"/>
<path d="M465.594 400C465.594 436.231 436.223 465.6 399.994 465.6C363.764 465.6 334.394 436.23 334.394 400C334.394 363.77 363.764 334.4 399.994 334.4C436.223 334.4 465.594 363.77 465.594 400Z" fill="white"/>
<path d="M465.594 662.391C465.594 698.622 436.223 727.991 399.994 727.991C363.764 727.991 334.394 698.62 334.394 662.391C334.394 626.161 363.764 596.791 399.994 596.791C436.223 596.791 465.594 626.161 465.594 662.391Z" fill="white"/>
</svg>
